<svg id="visual" viewBox="0 0 1920 1080" width="1920" height="1080" xmlns="http://www.w3.org/2000/svg" xmlns:xlink="http://www.w3.org/1999/xlink" version="1.1"><rect x="0" y="0" width="1920" height="1080" fill="#001220"></rect><path d="M0 805L45.7 776C91.3 747 182.7 689 274.2 675.8C365.7 662.7 457.3 694.3 548.8 717.8C640.3 741.3 731.7 756.7 823 752.3C914.3 748 1005.7 724 1097 702.2C1188.3 680.3 1279.7 660.7 1371.2 673.3C1462.7 686 1554.3 731 1645.8 757.3C1737.3 783.7 1828.7 791.3 1874.3 795.2L1920 799L1920 1081L1874.3 1081C1828.7 1081 1737.3 1081 1645.8 1081C1554.3 1081 1462.7 1081 1371.2 1081C1279.7 1081 1188.3 1081 1097 1081C1005.7 1081 914.3 1081 823 1081C731.7 1081 640.3 1081 548.8 1081C457.3 1081 365.7 1081 274.2 1081C182.7 1081 91.3 1081 45.7 1081L0 1081Z" fill="#4bb3fd"></path><path d="M0 764L45.7 770.7C91.3 777.3 182.7 790.7 274.2 797C365.7 803.3 457.3 802.7 548.8 804.5C640.3 806.3 731.7 810.7 823 807.3C914.3 804 1005.7 793 1097 792C1188.3 791 1279.7 800 1371.2 795.2C1462.7 790.3 1554.3 771.7 1645.8 760.2C1737.3 748.7 1828.7 744.3 1874.3 742.2L1920 740L1920 1081L1874.3 1081C1828.7 1081 1737.3 1081 1645.8 1081C1554.3 1081 1462.7 1081 1371.2 1081C1279.7 1081 1188.3 1081 1097 1081C1005.7 1081 914.3 1081 823 1081C731.7 1081 640.3 1081 548.8 1081C457.3 1081 365.7 1081 274.2 1081C182.7 1081 91.3 1081 45.7 1081L0 1081Z" fill="#3b96dc"></path><path d="M0 813L45.7 827C91.3 841 182.7 869 274.2 870.7C365.7 872.3 457.3 847.7 548.8 846C640.3 844.3 731.7 865.7 823 861.5C914.3 857.3 1005.7 827.7 1097 829C1188.3 830.3 1279.7 862.7 1371.2 869C1462.7 875.3 1554.3 855.7 1645.8 851.7C1737.3 847.7 1828.7 859.3 1874.3 865.2L1920 871L1920 1081L1874.3 1081C1828.7 1081 1737.3 1081 1645.8 1081C1554.3 1081 1462.7 1081 1371.2 1081C1279.7 1081 1188.3 1081 1097 1081C1005.7 1081 914.3 1081 823 1081C731.7 1081 640.3 1081 548.8 1081C457.3 1081 365.7 1081 274.2 1081C182.7 1081 91.3 1081 45.7 1081L0 1081Z" fill="#2b7bbb"></path><path d="M0 957L45.7 950C91.3 943 182.7 929 274.2 919.5C365.7 910 457.3 905 548.8 905.7C640.3 906.3 731.7 912.7 823 916.5C914.3 920.3 1005.7 921.7 1097 930.8C1188.3 940 1279.7 957 1371.2 962.3C1462.7 967.7 1554.3 961.3 1645.8 960C1737.3 958.7 1828.7 962.3 1874.3 964.2L1920 966L1920 1081L1874.3 1081C1828.7 1081 1737.3 1081 1645.8 1081C1554.3 1081 1462.7 1081 1371.2 1081C1279.7 1081 1188.3 1081 1097 1081C1005.7 1081 914.3 1081 823 1081C731.7 1081 640.3 1081 548.8 1081C457.3 1081 365.7 1081 274.2 1081C182.7 1081 91.3 1081 45.7 1081L0 1081Z" fill="#19619b"></path><path d="M0 1001L45.7 1002.5C91.3 1004 182.7 1007 274.2 1009.7C365.7 1012.3 457.3 1014.7 548.8 1015.5C640.3 1016.3 731.7 1015.7 823 1003.8C914.3 992 1005.7 969 1097 969.7C1188.3 970.3 1279.7 994.7 1371.2 1007C1462.7 1019.3 1554.3 1019.7 1645.8 1011.7C1737.3 1003.7 1828.7 987.3 1874.3 979.2L1920 971L1920 1081L1874.3 1081C1828.7 1081 1737.3 1081 1645.8 1081C1554.3 1081 1462.7 1081 1371.2 1081C1279.7 1081 1188.3 1081 1097 1081C1005.7 1081 914.3 1081 823 1081C731.7 1081 640.3 1081 548.8 1081C457.3 1081 365.7 1081 274.2 1081C182.7 1081 91.3 1081 45.7 1081L0 1081Z" fill="#00487c"></path></svg>